<?xml version="1.0" standalone="no"?>
<!DOCTYPE svg PUBLIC "-//W3C//DTD SVG 20010904//EN"
 "http://www.w3.org/TR/2001/REC-SVG-20010904/DTD/svg10.dtd">
<svg version="1.0" xmlns="http://www.w3.org/2000/svg"
width="200" height="50" fill="none" viewBox="0 0 489.000000 98.000000"
 preserveAspectRatio="xMidYMid meet">

<g transform="translate(0.000000,98.000000) scale(0.100000,-0.100000)"
fill="#ffffff" stroke="none">
<path d="M1610 838 c-12 -68 -26 -144 -32 -170 l-9 -47 -41 29 c-49 36 -111
46 -180 30 -72 -18 -155 -99 -187 -185 -51 -137 -54 -273 -7 -370 60 -122 198
-150 309 -63 l38 30 -6 -36 -7 -36 75 0 c74 0 76 0 81 28 8 38 156 895 156
905 0 4 -38 7 -84 7 l-83 0 -23 -122z m-116 -298 c14 -5 32 -20 41 -34 16 -24
16 -34 -5 -153 -21 -118 -25 -130 -55 -160 -41 -39 -98 -52 -134 -32 -43 24
-53 55 -48 151 9 171 95 269 201 228z"/>
<path d="M2896 818 c-3 -13 -10 -49 -16 -80 l-11 -58 -44 0 c-24 0 -46 -3 -48
-7 -3 -5 -8 -34 -12 -65 l-7 -58 46 0 c43 0 46 -2 41 -22 -14 -64 -55 -330
-55 -359 0 -19 9 -53 20 -77 26 -57 87 -86 167 -80 29 3 57 9 62 14 5 5 11 38
15 73 6 63 6 63 -18 57 -14 -3 -36 -2 -50 4 -33 12 -33 29 2 230 l27 155 57 3
56 3 7 47 c3 26 8 55 11 65 5 15 -2 17 -51 17 l-56 0 6 33 c3 17 9 53 14 80
l8 47 -83 0 c-79 0 -84 -1 -88 -22z"/>
<path d="M398 675 c-21 -8 -54 -26 -74 -41 l-36 -28 7 38 7 37 -78 -3 -79 -3
-52 -300 c-28 -165 -54 -312 -57 -327 l-5 -28 83 0 84 0 10 48 c6 26 24 130
42 232 30 177 33 186 63 212 37 33 81 43 120 29 50 -19 52 -45 13 -277 -20
-117 -36 -220 -36 -229 0 -13 12 -15 82 -13 l82 3 41 227 c34 196 43 230 64
253 54 57 153 55 168 -4 5 -21 -34 -296 -64 -453 l-5 -28 86 0 c47 0 86 3 86
8 0 4 16 99 35 212 19 113 35 223 35 245 0 134 -87 218 -207 201 -52 -7 -110
-35 -142 -70 l-24 -26 -34 40 c-50 58 -133 75 -215 45z"/>
<path d="M2337 676 c-104 -29 -177 -112 -177 -201 0 -79 60 -140 175 -175 139
-44 154 -55 135 -104 -14 -38 -53 -58 -111 -58 -55 0 -95 26 -101 66 -3 19
-10 21 -80 24 -78 3 -78 3 -78 -23 0 -100 124 -195 255 -195 54 0 151 26 193
52 43 27 82 86 89 136 13 94 -49 168 -169 202 -107 31 -142 50 -146 81 -5 41
47 79 107 79 53 0 81 -20 81 -58 0 -21 4 -22 86 -22 l87 0 -6 37 c-9 55 -55
113 -110 140 -59 30 -162 39 -230 19z"/>
<path d="M3415 681 c-134 -35 -230 -153 -255 -314 -18 -118 10 -218 80 -286
144 -140 413 -59 491 147 29 78 36 202 16 273 -19 65 -73 131 -129 160 -44 22
-154 33 -203 20z m137 -160 l33 -29 0 -104 c0 -91 -3 -108 -25 -148 -35 -63
-83 -93 -138 -87 -53 6 -79 28 -93 81 -13 49 -5 153 17 205 43 103 139 142
206 82z"/>
<path d="M4170 679 c-14 -6 -42 -27 -63 -47 l-38 -37 6 30 c4 17 8 36 11 43 2
9 -17 12 -76 12 -44 0 -80 -1 -81 -2 0 -2 -26 -149 -57 -328 l-58 -325 79 -3
c44 -2 82 0 85 3 3 3 23 101 44 217 24 138 43 217 54 229 25 28 98 52 143 47
47 -4 46 -5 56 91 6 48 4 65 -6 72 -18 11 -68 10 -99 -2z"/>
<path d="M4523 671 c-136 -47 -223 -176 -231 -342 -7 -144 33 -226 139 -284
48 -26 64 -30 139 -30 70 0 94 5 140 26 61 29 113 76 103 93 -4 6 -20 27 -36
48 l-29 36 -48 -30 c-56 -35 -114 -45 -164 -28 -41 13 -64 42 -76 95 l-8 35
203 0 203 0 6 31 c3 17 6 64 6 103 0 197 -161 312 -347 247z m146 -136 c33
-17 41 -33 41 -86 l0 -39 -120 0 c-66 0 -120 3 -120 8 1 21 50 89 79 109 39
26 80 29 120 8z"/>
</g>
</svg>
